<svg width="30" height="30" viewBox="0 0 30 35" fill="none" xmlns="http://www.w3.org/2000/svg">
<path d="M26.5941 26.7313C26.5941 27.2563 26.4972 27.7959 26.2915 28.3209C26.0857 28.8459 25.8194 29.3417 25.4683 29.8084C24.8752 30.5959 24.2215 31.1647 23.4832 31.5292C22.7569 31.8938 21.9701 32.0834 21.1227 32.0834C19.888 32.0834 18.5686 31.7334 17.1766 31.0188C15.7845 30.3042 14.3925 29.3417 13.0125 28.1313C11.6061 26.8919 10.2789 25.5269 9.04219 24.048C7.81812 22.5634 6.68915 20.9693 5.66497 19.2792C4.67238 17.6167 3.87347 15.9542 3.29244 14.3063C2.71141 12.6438 2.4209 11.0542 2.4209 9.53758C2.4209 8.54591 2.56616 7.598 2.85667 6.723C3.14718 5.83341 3.60716 5.01675 4.24871 4.28758C5.02342 3.36883 5.87075 2.91675 6.7665 2.91675C7.10543 2.91675 7.44437 3.00425 7.74699 3.17925C8.06171 3.35425 8.34012 3.61675 8.558 3.99591L11.3663 8.76466C11.5842 9.12925 11.7416 9.46466 11.8505 9.7855C11.9594 10.0917 12.02 10.398 12.02 10.6751C12.02 11.0251 11.9352 11.3751 11.7658 11.7105C11.6084 12.0459 11.3784 12.3959 11.0879 12.7459L10.1679 13.898C10.0348 14.0584 9.97426 14.248 9.97426 14.4813C9.97426 14.598 9.98636 14.7001 10.0106 14.8167C10.0469 14.9334 10.0832 15.0209 10.1074 15.1084C10.3253 15.5897 10.7005 16.2167 11.2332 16.9751C11.7779 17.7334 12.3589 18.5063 12.9883 19.2792C13.642 20.0522 14.2714 20.7667 14.913 21.423C15.5424 22.0647 16.0629 22.5022 16.4745 22.7647C16.535 22.7938 16.6077 22.8376 16.6924 22.8813C16.7892 22.9251 16.8861 22.9397 16.995 22.9397C17.2008 22.9397 17.3582 22.8522 17.4913 22.6917L18.4113 21.598C18.7139 21.2334 19.0044 20.9563 19.2828 20.7813C19.5612 20.5772 19.8396 20.4751 20.1422 20.4751C20.3722 20.4751 20.6143 20.5334 20.8806 20.6647C21.1469 20.7959 21.4253 20.9855 21.728 21.2334L25.7346 24.6605C26.0494 24.923 26.2672 25.2292 26.4004 25.5938C26.5214 25.9584 26.5941 26.323 26.5941 26.7313Z" fill="white"/>
</svg>
