<svg width="30" height="20" viewBox="0 0 30 20" fill="none" xmlns="http://www.w3.org/2000/svg">
<path d="M19.6875 13.75C25.3828 13.75 30 10.6719 30 6.875C30 3.07813 25.3828 0 19.6875 0C13.9922 0 9.375 3.07813 9.375 6.875C9.375 7.60547 9.54492 8.3125 9.86133 8.97266L0.410156 15.2734C0.146484 15.4492 0 15.6875 0 15.9375V19.0625C0 19.582 0.626953 20 1.40625 20H6.09375C6.87305 20 7.5 19.582 7.5 19.0625V17.5H9.84375C10.623 17.5 11.25 17.082 11.25 16.5625V15H13.5938C13.9688 15 14.3262 14.9023 14.5898 14.7266L16.541 13.4258C17.5312 13.6367 18.5918 13.75 19.6875 13.75ZM22.0312 6.875C20.7363 6.875 19.6875 6.17578 19.6875 5.3125C19.6875 4.44922 20.7363 3.75 22.0312 3.75C23.3262 3.75 24.375 4.44922 24.375 5.3125C24.375 6.17578 23.3262 6.875 22.0312 6.875Z" fill="white"/>
</svg>
