<svg width="43" height="43" viewBox="0 0 43 43" fill="none" xmlns="http://www.w3.org/2000/svg">
<rect width="42.037" height="42.0848" transform="translate(0.0175781 0.539307)" fill="#F9AA01"/>
<path d="M24.5392 16.8472V21.9325H29.0932C29.4435 21.9325 29.6187 22.2832 29.6187 22.6339L28.918 25.9656C28.918 26.1409 28.5677 26.3163 28.3926 26.3163H24.5392V39.1171H19.2846V26.4917H16.307C15.9566 26.4917 15.7815 26.3163 15.7815 25.9656V22.6339C15.7815 22.2832 15.9566 22.1078 16.307 22.1078H19.2846V16.3212C19.2846 13.3401 21.5616 11.0605 24.5392 11.0605H29.2684C29.6187 11.0605 29.7938 11.2359 29.7938 11.5866V15.7951C29.7938 16.1458 29.6187 16.3212 29.2684 16.3212H25.0647C24.7144 16.3212 24.5392 16.4965 24.5392 16.8472Z" fill="#111111" stroke="black" stroke-width="1.5" stroke-miterlimit="10" stroke-linecap="round"/>
</svg>
