<svg width="35" height="35" viewBox="0 0 35 35" fill="none" xmlns="http://www.w3.org/2000/svg">
<path d="M13.1248 32.0834H21.8748C29.1665 32.0834 32.0832 29.1667 32.0832 21.8751V13.1251C32.0832 5.83341 29.1665 2.91675 21.8748 2.91675H13.1248C5.83317 2.91675 2.9165 5.83341 2.9165 13.1251V21.8751C2.9165 29.1667 5.83317 32.0834 13.1248 32.0834Z" stroke="white" stroke-width="1.5" stroke-linecap="round" stroke-linejoin="round"/>
<path d="M17.5002 22.6041C18.1705 22.6041 18.8342 22.4721 19.4534 22.2156C20.0727 21.959 20.6354 21.5831 21.1094 21.1091C21.5833 20.6351 21.9593 20.0725 22.2158 19.4532C22.4723 18.8339 22.6043 18.1702 22.6043 17.4999C22.6043 16.8296 22.4723 16.1659 22.2158 15.5466C21.9593 14.9274 21.5833 14.3647 21.1094 13.8907C20.6354 13.4168 20.0727 13.0408 19.4534 12.7843C18.8342 12.5278 18.1705 12.3958 17.5002 12.3958C16.1465 12.3958 14.8482 12.9335 13.891 13.8907C12.9338 14.8479 12.396 16.1462 12.396 17.4999C12.396 18.8536 12.9338 20.1519 13.891 21.1091C14.8482 22.0663 16.1465 22.6041 17.5002 22.6041Z" stroke="white" stroke-width="1.5" stroke-linecap="round" stroke-linejoin="round"/>
<path d="M25.7192 10.2083H25.736H25.7192Z" fill="white"/>
<path d="M25.7192 10.2083H25.736" stroke="#FEFEFE" stroke-width="2" stroke-linecap="round" stroke-linejoin="round"/>
</svg>
