<svg width="43" height="43" viewBox="0 0 43 43" fill="none" xmlns="http://www.w3.org/2000/svg">
<rect width="42.037" height="42.0848" transform="translate(0.269409 0.539307)" fill="#F9AA01"/>
<path d="M16.0332 39.1171H26.5425C35.3002 39.1171 38.8033 35.61 38.8033 26.8423V16.3211C38.8033 7.55346 35.3002 4.04639 26.5425 4.04639H16.0332C7.27554 4.04639 3.77246 7.55346 3.77246 16.3211V26.8423C3.77246 35.61 7.27554 39.1171 16.0332 39.1171Z" stroke="black" stroke-width="1.5" stroke-linecap="round" stroke-linejoin="round"/>
<path d="M21.2879 27.7191C22.0929 27.7191 22.8901 27.5603 23.6339 27.2519C24.3776 26.9435 25.0534 26.4914 25.6227 25.9215C26.192 25.3516 26.6435 24.675 26.9516 23.9304C27.2597 23.1858 27.4182 22.3877 27.4182 21.5817C27.4182 20.7757 27.2597 19.9777 26.9516 19.233C26.6435 18.4884 26.192 17.8118 25.6227 17.2419C25.0534 16.672 24.3776 16.2199 23.6339 15.9115C22.8901 15.6031 22.0929 15.4443 21.2879 15.4443C19.662 15.4443 18.1027 16.091 16.953 17.2419C15.8033 18.3929 15.1575 19.954 15.1575 21.5817C15.1575 23.2094 15.8033 24.7705 16.953 25.9215C18.1027 27.0725 19.662 27.7191 21.2879 27.7191Z" stroke="black" stroke-width="1.5" stroke-linecap="round" stroke-linejoin="round"/>
<path d="M31.1595 12.814H31.1797" stroke="black" stroke-width="2" stroke-linecap="round" stroke-linejoin="round"/>
</svg>
