<svg width="44" height="44" viewBox="0 0 44 44" fill="none" xmlns="http://www.w3.org/2000/svg">
<rect y="-0.000244141" width="43.0379" height="43.0869" fill="#F9AA01"/>
<path d="M33.0935 8.00024H9.92424C8.86259 8.00024 8 8.87589 8 9.95083V33.1042C8 34.1792 8.86259 35.0548 9.92424 35.0548H33.0935C34.1552 35.0548 35.0238 34.1792 35.0238 33.1042V9.95083C35.0238 8.87589 34.1552 8.00024 33.0935 8.00024ZM16.1675 31.1899H12.1621V18.2786H16.1735V31.1899H16.1675ZM14.1648 16.5152C12.88 16.5152 11.8424 15.4704 11.8424 14.1902C11.8424 12.9099 12.88 11.8652 14.1648 11.8652C15.4436 11.8652 16.4872 12.9099 16.4872 14.1902C16.4872 15.4765 15.4496 16.5152 14.1648 16.5152V16.5152ZM31.1813 31.1899H27.176V24.9093C27.176 23.4117 27.1459 21.4853 25.0949 21.4853C23.0078 21.4853 22.6881 23.1158 22.6881 24.8006V31.1899H18.6828V18.2786H22.5253V20.0419H22.5796C23.1164 19.0274 24.4254 17.9585 26.3738 17.9585C30.4273 17.9585 31.1813 20.6338 31.1813 24.1122V31.1899V31.1899Z" fill="#1B1426"/>
</svg>
