<svg width="16" height="19" viewBox="0 0 16 19" fill="none" xmlns="http://www.w3.org/2000/svg">
<path d="M4.63543 0.651202L4.38858 1.17731H1.09714C0.490286 1.17731 0 1.70343 0 2.35463C0 3.00583 0.490286 3.53194 1.09714 3.53194H14.2629C14.8697 3.53194 15.36 3.00583 15.36 2.35463C15.36 1.70343 14.8697 1.17731 14.2629 1.17731H10.9714L10.7246 0.651202C10.5394 0.250179 10.1589 0 9.74401 0H5.61601C5.20115 0 4.82058 0.250179 4.63543 0.651202ZM14.2629 4.70926H1.09714L1.824 17.1814C1.87886 18.1122 2.59886 18.837 3.46629 18.837H11.8937C12.7612 18.837 13.4812 18.1122 13.536 17.1814L14.2629 4.70926Z" fill="#F9AA01"/>
</svg>
