<svg width="127" height="31" viewBox="0 0 127 31" fill="none" xmlns="http://www.w3.org/2000/svg">
<path d="M1.11418 30.5L27.8081 0.5H125.878L98.9061 30.5H1.11418Z" fill="#F9AA01" stroke="black"/>
<path d="M19.184 21V10.12H22.944L24.864 18.056L26.784 10.12H30.544V21H28.336V12.584H28.096L25.968 20.52H23.76L21.632 12.584H21.392V21H19.184ZM38.8544 15.496V18.824C38.8757 19.08 38.9184 19.2613 38.9824 19.368C39.0464 19.464 39.1797 19.5333 39.3824 19.576L39.3184 21.192C38.7744 21.192 38.337 21.1547 38.0064 21.08C37.6864 21.0053 37.361 20.856 37.0304 20.632C36.2624 21.0053 35.4784 21.192 34.6784 21.192C33.025 21.192 32.1984 20.3173 32.1984 18.568C32.1984 17.7147 32.4277 17.112 32.8864 16.76C33.345 16.3973 34.049 16.184 34.9984 16.12L36.7104 15.992V15.496C36.7104 15.1653 36.6357 14.9413 36.4864 14.824C36.337 14.696 36.097 14.632 35.7664 14.632L32.7584 14.76L32.6944 13.272C33.8357 12.9627 34.9184 12.808 35.9424 12.808C36.977 12.808 37.7184 13.0213 38.1664 13.448C38.625 13.8747 38.8544 14.5573 38.8544 15.496ZM35.2544 17.608C34.657 17.6613 34.3584 17.9813 34.3584 18.568C34.3584 19.1547 34.6197 19.448 35.1424 19.448C35.5477 19.448 35.9904 19.384 36.4704 19.256L36.7104 19.192V17.48L35.2544 17.608ZM40.8983 21V13H43.0423V21H40.8983ZM40.8983 11.976V9.8H43.0423V11.976H40.8983ZM50.7673 15C49.4446 14.8293 48.5166 14.744 47.9833 14.744C47.4606 14.744 47.1193 14.792 46.9593 14.888C46.8099 14.984 46.7353 15.1387 46.7353 15.352C46.7353 15.5547 46.8366 15.6987 47.0393 15.784C47.2526 15.8587 47.7859 15.976 48.6393 16.136C49.5033 16.2853 50.1166 16.536 50.4793 16.888C50.8419 17.24 51.0233 17.8107 51.0233 18.6C51.0233 20.328 49.9513 21.192 47.8073 21.192C47.1033 21.192 46.2499 21.096 45.2473 20.904L44.7353 20.808L44.7993 19.016C46.1219 19.1867 47.0393 19.272 47.5513 19.272C48.0739 19.272 48.4259 19.224 48.6073 19.128C48.7993 19.0213 48.8953 18.8667 48.8953 18.664C48.8953 18.4613 48.7939 18.312 48.5913 18.216C48.3993 18.12 47.8873 18.0027 47.0553 17.864C46.2339 17.7253 45.6206 17.4907 45.2153 17.16C44.8099 16.8293 44.6073 16.2427 44.6073 15.4C44.6073 14.5467 44.8953 13.9067 45.4713 13.48C46.0473 13.0427 46.7886 12.824 47.6953 12.824C48.3246 12.824 49.1833 12.9253 50.2713 13.128L50.7993 13.224L50.7673 15ZM60.2778 17.832H58.4858V21H56.2778V10.12H60.2778C62.8591 10.12 64.1498 11.3787 64.1498 13.896C64.1498 15.1653 63.8191 16.1413 63.1578 16.824C62.5071 17.496 61.5471 17.832 60.2778 17.832ZM58.4858 15.944H60.2618C61.3604 15.944 61.9098 15.2613 61.9098 13.896C61.9098 13.224 61.7764 12.744 61.5098 12.456C61.2431 12.1573 60.8271 12.008 60.2618 12.008H58.4858V15.944ZM65.9396 13.912C66.505 13.176 67.449 12.808 68.7716 12.808C70.0943 12.808 71.0383 13.176 71.6036 13.912C72.169 14.6373 72.4516 15.6613 72.4516 16.984C72.4516 19.7893 71.225 21.192 68.7716 21.192C66.3183 21.192 65.0916 19.7893 65.0916 16.984C65.0916 15.6613 65.3743 14.6373 65.9396 13.912ZM67.5876 18.792C67.8116 19.176 68.2063 19.368 68.7716 19.368C69.337 19.368 69.7263 19.176 69.9396 18.792C70.1636 18.408 70.2756 17.8053 70.2756 16.984C70.2756 16.1627 70.1636 15.5653 69.9396 15.192C69.7263 14.8187 69.337 14.632 68.7716 14.632C68.2063 14.632 67.8116 14.8187 67.5876 15.192C67.3743 15.5653 67.2676 16.1627 67.2676 16.984C67.2676 17.8053 67.3743 18.408 67.5876 18.792ZM74.0233 24.36V13H76.1513V13.432C76.8446 13.016 77.4526 12.808 77.9753 12.808C79.0526 12.808 79.8473 13.1333 80.3593 13.784C80.8713 14.424 81.1273 15.5173 81.1273 17.064C81.1273 18.6107 80.8446 19.688 80.2793 20.296C79.7139 20.8933 78.7859 21.192 77.4953 21.192C77.1433 21.192 76.7646 21.16 76.3593 21.096L76.1673 21.064V24.36H74.0233ZM77.5593 14.728C77.1646 14.728 76.7646 14.808 76.3593 14.968L76.1673 15.048V19.24C76.6473 19.304 77.0366 19.336 77.3353 19.336C77.9539 19.336 78.3753 19.1547 78.5993 18.792C78.8339 18.4293 78.9513 17.8107 78.9513 16.936C78.9513 15.464 78.4873 14.728 77.5593 14.728ZM87.4464 13H89.5904V21H87.4624V20.552C86.6944 20.9787 86.0277 21.192 85.4624 21.192C84.353 21.192 83.6064 20.888 83.2224 20.28C82.8384 19.6613 82.6464 18.632 82.6464 17.192V13H84.7904V17.224C84.7904 18.0133 84.8544 18.552 84.9824 18.84C85.1104 19.128 85.4197 19.272 85.9104 19.272C86.3797 19.272 86.8224 19.1973 87.2384 19.048L87.4464 18.984V13ZM91.6661 21V9.8H93.8101V21H91.6661ZM102.011 15.496V18.824C102.032 19.08 102.075 19.2613 102.139 19.368C102.203 19.464 102.336 19.5333 102.539 19.576L102.475 21.192C101.931 21.192 101.493 21.1547 101.163 21.08C100.843 21.0053 100.517 20.856 100.187 20.632C99.4186 21.0053 98.6346 21.192 97.8346 21.192C96.1813 21.192 95.3546 20.3173 95.3546 18.568C95.3546 17.7147 95.584 17.112 96.0426 16.76C96.5013 16.3973 97.2053 16.184 98.1546 16.12L99.8666 15.992V15.496C99.8666 15.1653 99.792 14.9413 99.6426 14.824C99.4933 14.696 99.2533 14.632 98.9226 14.632L95.9146 14.76L95.8506 13.272C96.992 12.9627 98.0746 12.808 99.0986 12.808C100.133 12.808 100.875 13.0213 101.323 13.448C101.781 13.8747 102.011 14.5573 102.011 15.496ZM98.4106 17.608C97.8133 17.6613 97.5146 17.9813 97.5146 18.568C97.5146 19.1547 97.776 19.448 98.2986 19.448C98.704 19.448 99.1466 19.384 99.6266 19.256L99.8666 19.192V17.48L98.4106 17.608ZM104.055 21V13H106.183V13.848C107.079 13.3147 107.932 12.968 108.743 12.808V14.968C107.879 15.1493 107.137 15.336 106.519 15.528L106.199 15.64V21H104.055Z" fill="black"/>
</svg>
