<svg width="37" height="34" viewBox="0 0 37 34" fill="none" xmlns="http://www.w3.org/2000/svg">
<path d="M3 5.5C3 4.11719 3.95759 3 5.14286 3H30.8571C32.0424 3 33 4.11719 33 5.5C33 6.88281 32.0424 8 30.8571 8H5.14286C3.95759 8 3 6.88281 3 5.5ZM3 18C3 16.6172 3.95759 15.5 5.14286 15.5H30.8571C32.0424 15.5 33 16.6172 33 18C33 19.3828 32.0424 20.5 30.8571 20.5H5.14286C3.95759 20.5 3 19.3828 3 18ZM33 30.5C33 31.8828 32.0424 33 30.8571 33H5.14286C3.95759 33 3 31.8828 3 30.5C3 29.1172 3.95759 28 5.14286 28H30.8571C32.0424 28 33 29.1172 33 30.5Z" fill="white"/>
</svg>
