<svg width="127" height="31" viewBox="0 0 127 31" fill="none" xmlns="http://www.w3.org/2000/svg">
<path d="M1.11418 30.5L27.8081 0.5H125.878L98.9061 30.5H1.11418Z" fill="#F9AA01" stroke="black"/>
<path d="M26.296 17.368C26.296 18.6373 26.9413 19.272 28.232 19.272C29.5227 19.272 30.168 18.6373 30.168 17.368V10.12H32.376V17.32C32.376 18.6533 32.0293 19.6347 31.336 20.264C30.6533 20.8827 29.6187 21.192 28.232 21.192C26.8453 21.192 25.8053 20.8827 25.112 20.264C24.4293 19.6347 24.088 18.6533 24.088 17.32V10.12H26.296V17.368ZM25.8 7.576L29.832 5.88L30.488 7.8L26.328 9.064L25.8 7.576ZM34.5568 21V9.8H36.7008V21H34.5568ZM43.2053 14.824H41.2373V18.104C41.2373 18.424 41.2426 18.6533 41.2533 18.792C41.2746 18.92 41.3333 19.032 41.4293 19.128C41.5359 19.224 41.6959 19.272 41.9093 19.272L43.1253 19.24L43.2213 20.952C42.5066 21.112 41.9626 21.192 41.5893 21.192C40.6293 21.192 39.9733 20.9787 39.6213 20.552C39.2693 20.1147 39.0933 19.3147 39.0933 18.152V14.824H38.1493V13H39.0933V10.776H41.2373V13H43.2053V14.824ZM44.6014 21V13H46.7454V21H44.6014ZM44.6014 11.976V9.8H46.7454V11.976H44.6014ZM50.8704 21H48.7264V13H50.8544V13.448C51.5904 13.0213 52.2197 12.808 52.7424 12.808C53.6064 12.808 54.273 13.0587 54.7424 13.56C55.7237 13.0587 56.6197 12.808 57.4304 12.808C58.4864 12.808 59.217 13.1173 59.6224 13.736C60.0384 14.344 60.2464 15.32 60.2464 16.664V21H58.1024V16.728C58.1024 16.0453 58.0277 15.544 57.8784 15.224C57.729 14.8933 57.4304 14.728 56.9824 14.728C56.641 14.728 56.225 14.8027 55.7344 14.952L55.4944 15.032C55.537 15.832 55.5584 16.44 55.5584 16.856V21H53.4144V16.888C53.4144 16.0987 53.345 15.544 53.2064 15.224C53.0677 14.8933 52.7637 14.728 52.2944 14.728C51.8784 14.728 51.4677 14.8027 51.0624 14.952L50.8704 15.016V21ZM62.5803 13.912C63.1456 13.176 64.0896 12.808 65.4123 12.808C66.7349 12.808 67.6789 13.176 68.2443 13.912C68.8096 14.6373 69.0923 15.6613 69.0923 16.984C69.0923 19.7893 67.8656 21.192 65.4123 21.192C62.9589 21.192 61.7323 19.7893 61.7323 16.984C61.7323 15.6613 62.0149 14.6373 62.5803 13.912ZM64.2283 18.792C64.4523 19.176 64.8469 19.368 65.4123 19.368C65.9776 19.368 66.3669 19.176 66.5803 18.792C66.8043 18.408 66.9163 17.8053 66.9163 16.984C66.9163 16.1627 66.8043 15.5653 66.5803 15.192C66.3669 14.8187 65.9776 14.632 65.4123 14.632C64.8469 14.632 64.4523 14.8187 64.2283 15.192C64.0149 15.5653 63.9083 16.1627 63.9083 16.984C63.9083 17.8053 64.0149 18.408 64.2283 18.792ZM73.4915 22.12V20.2C73.9182 20.2 74.2275 20.12 74.4195 19.96C74.6115 19.8 74.7075 19.5013 74.7075 19.064V10.12H76.8995L76.9155 19.16C76.9155 20.3227 76.6542 21.1067 76.1315 21.512C75.6195 21.9173 74.7395 22.12 73.4915 22.12ZM79.3615 13.912C79.9268 13.176 80.8708 12.808 82.1935 12.808C83.5162 12.808 84.4602 13.176 85.0255 13.912C85.5908 14.6373 85.8735 15.6613 85.8735 16.984C85.8735 19.7893 84.6468 21.192 82.1935 21.192C79.7402 21.192 78.5135 19.7893 78.5135 16.984C78.5135 15.6613 78.7962 14.6373 79.3615 13.912ZM81.0095 18.792C81.2335 19.176 81.6282 19.368 82.1935 19.368C82.7588 19.368 83.1482 19.176 83.3615 18.792C83.5855 18.408 83.6975 17.8053 83.6975 16.984C83.6975 16.1627 83.5855 15.5653 83.3615 15.192C83.1482 14.8187 82.7588 14.632 82.1935 14.632C81.6282 14.632 81.2335 14.8187 81.0095 15.192C80.7962 15.5653 80.6895 16.1627 80.6895 16.984C80.6895 17.8053 80.7962 18.408 81.0095 18.792ZM94.6931 21.992C94.6931 22.9093 94.3411 23.5867 93.6371 24.024C92.9331 24.4613 91.9785 24.68 90.7731 24.68C89.5785 24.68 88.6558 24.52 88.0051 24.2C87.3651 23.88 87.0451 23.2987 87.0451 22.456C87.0451 21.784 87.4291 21.1493 88.1971 20.552C87.8025 20.2853 87.6051 19.88 87.6051 19.336C87.6051 19.1227 87.7651 18.7707 88.0851 18.28L88.2291 18.056C87.5038 17.5333 87.1411 16.7653 87.1411 15.752C87.1411 14.728 87.4451 13.9867 88.0531 13.528C88.6718 13.0693 89.4878 12.84 90.5011 12.84C90.9598 12.84 91.4131 12.8933 91.8611 13L92.1171 13.048L94.6931 12.968V14.68L93.4931 14.584C93.7278 14.9467 93.8451 15.3093 93.8451 15.672C93.8451 16.7387 93.5731 17.4747 93.0291 17.88C92.4851 18.2853 91.6318 18.488 90.4691 18.488C90.2238 18.488 90.0051 18.4667 89.8131 18.424C89.7065 18.7013 89.6531 18.9307 89.6531 19.112C89.6531 19.2827 89.7438 19.4 89.9251 19.464C90.1065 19.528 90.5331 19.5653 91.2051 19.576C92.5491 19.5867 93.4665 19.768 93.9571 20.12C94.4478 20.4613 94.6931 21.0853 94.6931 21.992ZM89.1571 22.232C89.1571 22.6907 89.7171 22.92 90.8371 22.92C91.9678 22.92 92.5331 22.6533 92.5331 22.12C92.5331 21.832 92.4371 21.6453 92.2451 21.56C92.0531 21.4853 91.6478 21.4427 91.0291 21.432L89.5891 21.32C89.3011 21.608 89.1571 21.912 89.1571 22.232ZM89.2851 15.688C89.2851 16.4667 89.6905 16.856 90.5011 16.856C91.3225 16.856 91.7331 16.4667 91.7331 15.688C91.7331 14.8987 91.3225 14.504 90.5011 14.504C89.6905 14.504 89.2851 14.8987 89.2851 15.688ZM96.424 13.912C96.9893 13.176 97.9333 12.808 99.256 12.808C100.579 12.808 101.523 13.176 102.088 13.912C102.653 14.6373 102.936 15.6613 102.936 16.984C102.936 19.7893 101.709 21.192 99.256 21.192C96.8027 21.192 95.576 19.7893 95.576 16.984C95.576 15.6613 95.8587 14.6373 96.424 13.912ZM98.072 18.792C98.296 19.176 98.6907 19.368 99.256 19.368C99.8213 19.368 100.211 19.176 100.424 18.792C100.648 18.408 100.76 17.8053 100.76 16.984C100.76 16.1627 100.648 15.5653 100.424 15.192C100.211 14.8187 99.8213 14.632 99.256 14.632C98.6907 14.632 98.296 14.8187 98.072 15.192C97.8587 15.5653 97.752 16.1627 97.752 16.984C97.752 17.8053 97.8587 18.408 98.072 18.792Z" fill="black"/>
</svg>
